<svg width="19" height="19" viewBox="0 0 19 19" fill="none" xmlns="http://www.w3.org/2000/svg">
<path d="M9.27168 17.5295C13.84 17.5295 17.5434 13.8292 17.5434 9.26474C17.5434 4.70025 13.84 1 9.27168 1C4.70336 1 1 4.70025 1 9.26474C1 13.8292 4.70336 17.5295 9.27168 17.5295Z" stroke="#10EDD2" stroke-miterlimit="10"/>
<path d="M9.27165 17.5295C10.9664 17.5295 12.3402 13.8292 12.3402 9.26474C12.3402 4.70025 10.9664 1 9.27165 1C7.57695 1 6.20312 4.70025 6.20312 9.26474C6.20312 13.8292 7.57695 17.5295 9.27165 17.5295Z" stroke="#10EDD2" stroke-miterlimit="10"/>
<path d="M9.27168 4.99906C6.8581 4.99906 4.68708 4.4901 3.17101 3.69028C1.82474 5.15661 1 7.10767 1 9.25262C1 11.3976 1.82474 13.3486 3.17101 14.815C4.68708 14.0151 6.84597 13.5062 9.27168 13.5062C11.6974 13.5062 13.8563 14.0151 15.3723 14.815C16.7186 13.3486 17.5434 11.3976 17.5434 9.25262C17.5434 7.10767 16.7186 5.15661 15.3723 3.69028C13.8563 4.50222 11.6853 4.99906 9.27168 4.99906Z" stroke="#10EDD2" stroke-miterlimit="10"/>
</svg>
